<svg xmlns="http://www.w3.org/2000/svg" xmlns:xlink="http://www.w3.org/1999/xlink" width="1200" zoomAndPan="magnify" viewBox="0 0 900 262.499992" height="350" preserveAspectRatio="xMidYMid meet" version="1.0"><defs><clipPath id="c868fd8682"><path d="M 0.855469 0 L 899.144531 0 L 899.144531 262 L 0.855469 262 Z M 0.855469 0 " clip-rule="nonzero"/></clipPath><clipPath id="825d7bfd6c"><path d="M 0.855469 0 L 253 0 L 253 262 L 0.855469 262 Z M 0.855469 0 " clip-rule="nonzero"/></clipPath><clipPath id="2eb42fa935"><path d="M 0.855469 58 L 253 58 L 253 129 L 0.855469 129 Z M 0.855469 58 " clip-rule="nonzero"/></clipPath><clipPath id="00710c2559"><path d="M 0.855469 16 L 253 16 L 253 110 L 0.855469 110 Z M 0.855469 16 " clip-rule="nonzero"/></clipPath><clipPath id="6ace0ecab4"><path d="M 0.855469 0 L 253 0 L 253 65 L 0.855469 65 Z M 0.855469 0 " clip-rule="nonzero"/></clipPath><clipPath id="6f87f87b06"><path d="M 0.855469 182 L 253 182 L 253 247 L 0.855469 247 Z M 0.855469 182 " clip-rule="nonzero"/></clipPath><clipPath id="e01d59b752"><path d="M 0.855469 219 L 253 219 L 253 262 L 0.855469 262 Z M 0.855469 219 " clip-rule="nonzero"/></clipPath><clipPath id="c68e2d9ac6"><path d="M 0.855469 107 L 253 107 L 253 187 L 0.855469 187 Z M 0.855469 107 " clip-rule="nonzero"/></clipPath><clipPath id="ac9e2c2daa"><path d="M 0.855469 146 L 253 146 L 253 217 L 0.855469 217 Z M 0.855469 146 " clip-rule="nonzero"/></clipPath><clipPath id="e63c6daf41"><path d="M 253.621094 0 L 646.378906 0 L 646.378906 262 L 253.621094 262 Z M 253.621094 0 " clip-rule="nonzero"/></clipPath><clipPath id="0e29ffd7e6"><path d="M 253.621094 58 L 646.378906 58 L 646.378906 129 L 253.621094 129 Z M 253.621094 58 " clip-rule="nonzero"/></clipPath><clipPath id="1be0bca764"><path d="M 253.621094 16 L 646.378906 16 L 646.378906 110 L 253.621094 110 Z M 253.621094 16 " clip-rule="nonzero"/></clipPath><clipPath id="4818362998"><path d="M 253.621094 0 L 646.378906 0 L 646.378906 65 L 253.621094 65 Z M 253.621094 0 " clip-rule="nonzero"/></clipPath><clipPath id="a7a890502f"><path d="M 253.621094 182 L 646.378906 182 L 646.378906 247 L 253.621094 247 Z M 253.621094 182 " clip-rule="nonzero"/></clipPath><clipPath id="d4d98e8318"><path d="M 253.621094 219 L 646.378906 219 L 646.378906 262 L 253.621094 262 Z M 253.621094 219 " clip-rule="nonzero"/></clipPath><clipPath id="ad1e71ba22"><path d="M 253.621094 107 L 646.378906 107 L 646.378906 187 L 253.621094 187 Z M 253.621094 107 " clip-rule="nonzero"/></clipPath><clipPath id="ec1a95d4f8"><path d="M 253.621094 146 L 646.378906 146 L 646.378906 217 L 253.621094 217 Z M 253.621094 146 " clip-rule="nonzero"/></clipPath><clipPath id="1f86a08ff7"><path d="M 646.625 0 L 899.144531 0 L 899.144531 262 L 646.625 262 Z M 646.625 0 " clip-rule="nonzero"/></clipPath><clipPath id="ec45e9f3b7"><path d="M 646.625 58 L 899.144531 58 L 899.144531 129 L 646.625 129 Z M 646.625 58 " clip-rule="nonzero"/></clipPath><clipPath id="06aac93b36"><path d="M 646.625 16 L 899.144531 16 L 899.144531 110 L 646.625 110 Z M 646.625 16 " clip-rule="nonzero"/></clipPath><clipPath id="145182769c"><path d="M 646.625 0 L 899.144531 0 L 899.144531 65 L 646.625 65 Z M 646.625 0 " clip-rule="nonzero"/></clipPath><clipPath id="3e9f01dd2a"><path d="M 646.625 182 L 899.144531 182 L 899.144531 247 L 646.625 247 Z M 646.625 182 " clip-rule="nonzero"/></clipPath><clipPath id="b4735e1df0"><path d="M 646.625 219 L 899.144531 219 L 899.144531 262 L 646.625 262 Z M 646.625 219 " clip-rule="nonzero"/></clipPath><clipPath id="92e4960ca4"><path d="M 646.625 107 L 899.144531 107 L 899.144531 187 L 646.625 187 Z M 646.625 107 " clip-rule="nonzero"/></clipPath><clipPath id="30b3e4c27d"><path d="M 646.625 146 L 899.144531 146 L 899.144531 217 L 646.625 217 Z M 646.625 146 " clip-rule="nonzero"/></clipPath></defs><g clip-path="url(#c868fd8682)"><path fill="#ffffff" d="M 0.855469 0 L 899.144531 0 L 899.144531 262 L 0.855469 262 Z M 0.855469 0 " fill-opacity="1" fill-rule="nonzero"/><path fill="#e5e7eb" d="M 0.855469 0 L 899.144531 0 L 899.144531 262 L 0.855469 262 Z M 0.855469 0 " fill-opacity="1" fill-rule="nonzero"/></g><g clip-path="url(#825d7bfd6c)"><path fill="#ffffff" d="M -139.835938 0 L 252.921875 0 L 252.921875 262 L -139.835938 262 Z M -139.835938 0 " fill-opacity="1" fill-rule="nonzero"/></g><g clip-path="url(#2eb42fa935)"><path fill="#e8f8fe" d="M -41.1875 122.894531 C -23.136719 118.273438 -5.199219 110.164062 13.296875 112.378906 C 31.328125 114.539062 47.113281 126.304688 65.132812 128.554688 C 96.75 132.503906 125.59375 106.65625 157.445312 107.445312 C 176.964844 107.925781 194.675781 118.328125 213.410156 123.824219 C 226.195312 127.570312 239.632812 128.9375 252.921875 128.015625 L 252.921875 58.3125 C 236.066406 62.269531 219.453125 68.996094 203.449219 75.609375 C 173.078125 88.152344 140.289062 100.777344 108.1875 93.765625 C 90.269531 89.851562 73.929688 79.992188 55.792969 77.277344 C 10.609375 70.503906 -30.25 108.851562 -75.929688 109.601562 C -100.199219 110 -124.035156 98.425781 -139.835938 80.101562 L -139.835938 113.757812 C -109.207031 127.675781 -73.816406 131.25 -41.1875 122.894531 " fill-opacity="1" fill-rule="nonzero"/></g><g clip-path="url(#00710c2559)"><path fill="#f1fafe" d="M -75.929688 109.601562 C -30.25 108.851562 10.609375 70.503906 55.792969 77.277344 C 73.929688 79.992188 90.269531 89.851562 108.1875 93.765625 C 140.289062 100.777344 173.078125 88.152344 203.449219 75.609375 C 219.453125 68.996094 236.066406 62.269531 252.921875 58.3125 L 252.921875 33.519531 C 229.828125 41.984375 204.253906 43.78125 180.382812 37.769531 C 156.433594 31.738281 134.171875 18.472656 109.527344 16.957031 C 75.765625 14.886719 45.257812 34.925781 13.914062 47.644531 C -34.5625 67.320312 -89.789062 69.417969 -139.835938 54.378906 L -139.835938 80.101562 C -124.035156 98.425781 -100.199219 110 -75.929688 109.601562 " fill-opacity="1" fill-rule="nonzero"/></g><g clip-path="url(#6ace0ecab4)"><path fill="#ffffff" d="M 13.914062 47.644531 C 45.257812 34.925781 75.765625 14.886719 109.527344 16.957031 C 134.171875 18.472656 156.433594 31.738281 180.382812 37.769531 C 204.253906 43.78125 229.828125 41.984375 252.921875 33.519531 L 252.921875 0 L -139.835938 0 L -139.835938 54.378906 C -89.789062 69.417969 -34.5625 67.320312 13.914062 47.644531 " fill-opacity="1" fill-rule="nonzero"/></g><g clip-path="url(#6f87f87b06)"><path fill="#70bce1" d="M 218.351562 215.730469 C 197.917969 212.507812 178.753906 203.046875 158.183594 200.878906 C 116.929688 196.53125 75.386719 221.894531 35.175781 211.691406 C 15.121094 206.605469 -1.886719 193.152344 -21.628906 186.96875 C -59.683594 175.058594 -100.066406 191.714844 -139.835938 196.832031 L -139.835938 244.617188 C -133.535156 246.875 -126.066406 246.683594 -119.5625 244.667969 C -109.175781 241.453125 -100.390625 234.601562 -91.121094 228.917969 C -81.851562 223.234375 -71.117188 218.515625 -60.394531 220.328125 C -47.65625 222.480469 -38.007812 233.269531 -25.644531 237.03125 C -4.183594 243.554688 17.953125 227.546875 40.351562 228.671875 C 59.8125 229.648438 77.765625 243.515625 97.0625 240.808594 C 108.925781 239.144531 119.03125 231.414062 130.5 227.933594 C 162.085938 218.351562 194.527344 242.351562 227.503906 240.910156 C 236.328125 240.523438 245.015625 238.171875 252.921875 234.234375 L 252.921875 212.222656 C 242.398438 216.613281 229.734375 217.523438 218.351562 215.730469 " fill-opacity="1" fill-rule="nonzero"/></g><g clip-path="url(#e01d59b752)"><path fill="#54a3d4" d="M 130.5 227.933594 C 119.03125 231.414062 108.925781 239.144531 97.0625 240.808594 C 77.765625 243.515625 59.8125 229.648438 40.351562 228.671875 C 17.953125 227.546875 -4.183594 243.554688 -25.644531 237.03125 C -38.007812 233.269531 -47.65625 222.480469 -60.394531 220.328125 C -71.117188 218.515625 -81.851562 223.234375 -91.121094 228.917969 C -100.390625 234.601562 -109.175781 241.453125 -119.5625 244.667969 C -126.066406 246.683594 -133.535156 246.875 -139.835938 244.617188 L -139.835938 262 L 252.921875 262 L 252.921875 234.234375 C 245.015625 238.171875 236.328125 240.523438 227.503906 240.910156 C 194.527344 242.351562 162.085938 218.351562 130.5 227.933594 " fill-opacity="1" fill-rule="nonzero"/></g><g clip-path="url(#c68e2d9ac6)"><path fill="#b6e5f6" d="M 213.410156 123.824219 C 194.675781 118.328125 176.964844 107.925781 157.445312 107.445312 C 125.59375 106.65625 96.75 132.503906 65.132812 128.554688 C 47.113281 126.304688 31.328125 114.539062 13.296875 112.378906 C -5.199219 110.164062 -23.136719 118.273438 -41.1875 122.894531 C -73.816406 131.25 -109.207031 127.675781 -139.835938 113.757812 L -139.835938 178.265625 C -118.648438 183.40625 -95.835938 181.859375 -75.628906 173.632812 C -55.824219 165.570312 -37.460938 151.175781 -16.082031 151.449219 C 8.988281 151.765625 28.871094 171.980469 52.222656 181.113281 C 72.210938 188.9375 95.363281 188.273438 114.875 179.320312 C 132.457031 171.257812 146.867188 156.96875 165.109375 150.539062 C 193.203125 140.640625 223.117188 151.234375 252.921875 157.339844 L 252.921875 128.015625 C 239.632812 128.9375 226.195312 127.570312 213.410156 123.824219 " fill-opacity="1" fill-rule="nonzero"/></g><g clip-path="url(#ac9e2c2daa)"><path fill="#8dd4f0" d="M 165.109375 150.539062 C 146.867188 156.96875 132.457031 171.257812 114.875 179.320312 C 95.363281 188.273438 72.210938 188.9375 52.222656 181.113281 C 28.871094 171.980469 8.988281 151.765625 -16.082031 151.449219 C -37.460938 151.175781 -55.824219 165.570312 -75.628906 173.632812 C -95.835938 181.859375 -118.648438 183.40625 -139.835938 178.265625 L -139.835938 196.832031 C -100.066406 191.714844 -59.683594 175.058594 -21.628906 186.96875 C -1.886719 193.152344 15.121094 206.605469 35.175781 211.691406 C 75.386719 221.894531 116.929688 196.53125 158.183594 200.878906 C 178.753906 203.046875 197.917969 212.507812 218.351562 215.730469 C 229.734375 217.523438 242.398438 216.613281 252.921875 212.222656 L 252.921875 157.339844 C 223.117188 151.234375 193.203125 140.640625 165.109375 150.539062 " fill-opacity="1" fill-rule="nonzero"/></g><g clip-path="url(#e63c6daf41)"><path fill="#ffffff" d="M 646.5 0 L 253.746094 0 L 253.746094 262 L 646.5 262 Z M 646.5 0 " fill-opacity="1" fill-rule="nonzero"/></g><g clip-path="url(#0e29ffd7e6)"><path fill="#e8f8fe" d="M 547.851562 122.894531 C 529.804688 118.273438 511.863281 110.164062 493.367188 112.378906 C 475.335938 114.539062 459.550781 126.304688 441.535156 128.554688 C 409.917969 132.503906 381.070312 106.65625 349.21875 107.445312 C 329.699219 107.925781 311.992188 118.328125 293.257812 123.824219 C 280.472656 127.570312 267.03125 128.9375 253.746094 128.015625 L 253.746094 58.3125 C 270.597656 62.269531 287.210938 68.996094 303.214844 75.609375 C 333.585938 88.152344 366.375 100.777344 398.480469 93.765625 C 416.394531 89.851562 432.734375 79.992188 450.871094 77.277344 C 496.054688 70.503906 536.914062 108.851562 582.597656 109.601562 C 606.867188 110 630.699219 98.425781 646.5 80.101562 L 646.5 113.757812 C 615.871094 127.675781 580.484375 131.25 547.851562 122.894531 " fill-opacity="1" fill-rule="nonzero"/></g><g clip-path="url(#1be0bca764)"><path fill="#f1fafe" d="M 582.597656 109.601562 C 536.914062 108.851562 496.054688 70.503906 450.871094 77.277344 C 432.734375 79.992188 416.394531 89.851562 398.480469 93.765625 C 366.375 100.777344 333.585938 88.152344 303.214844 75.609375 C 287.210938 68.996094 270.597656 62.269531 253.746094 58.3125 L 253.746094 33.519531 C 276.839844 41.984375 302.414062 43.78125 326.28125 37.769531 C 350.230469 31.738281 372.492188 18.472656 397.140625 16.957031 C 430.898438 14.886719 461.40625 34.925781 492.75 47.644531 C 541.226562 67.320312 596.453125 69.417969 646.5 54.378906 L 646.5 80.101562 C 630.699219 98.425781 606.867188 110 582.597656 109.601562 " fill-opacity="1" fill-rule="nonzero"/></g><g clip-path="url(#4818362998)"><path fill="#ffffff" d="M 492.75 47.644531 C 461.40625 34.925781 430.898438 14.886719 397.140625 16.957031 C 372.492188 18.472656 350.230469 31.738281 326.28125 37.769531 C 302.414062 43.78125 276.839844 41.984375 253.746094 33.519531 L 253.746094 0 L 646.5 0 L 646.5 54.378906 C 596.453125 69.417969 541.226562 67.320312 492.75 47.644531 " fill-opacity="1" fill-rule="nonzero"/></g><g clip-path="url(#a7a890502f)"><path fill="#70bce1" d="M 288.3125 215.730469 C 308.746094 212.507812 327.910156 203.046875 348.484375 200.878906 C 389.738281 196.53125 431.277344 221.894531 471.488281 211.691406 C 491.542969 206.605469 508.550781 193.152344 528.296875 186.96875 C 566.347656 175.058594 606.730469 191.714844 646.5 196.832031 L 646.5 244.617188 C 640.199219 246.875 632.730469 246.683594 626.226562 244.667969 C 615.839844 241.453125 607.054688 234.601562 597.785156 228.917969 C 588.515625 223.234375 577.78125 218.515625 567.0625 220.328125 C 554.320312 222.480469 544.671875 233.269531 532.308594 237.03125 C 510.851562 243.554688 488.710938 227.546875 466.3125 228.671875 C 446.851562 229.648438 428.898438 243.515625 409.601562 240.808594 C 397.738281 239.144531 387.632812 231.414062 376.167969 227.933594 C 344.578125 218.351562 312.136719 242.351562 279.160156 240.910156 C 270.335938 240.523438 261.648438 238.171875 253.746094 234.234375 L 253.746094 212.222656 C 264.265625 216.613281 276.933594 217.523438 288.3125 215.730469 " fill-opacity="1" fill-rule="nonzero"/></g><g clip-path="url(#d4d98e8318)"><path fill="#54a3d4" d="M 376.167969 227.933594 C 387.632812 231.414062 397.738281 239.144531 409.601562 240.808594 C 428.898438 243.515625 446.851562 229.648438 466.3125 228.671875 C 488.710938 227.546875 510.851562 243.554688 532.308594 237.03125 C 544.671875 233.269531 554.320312 222.480469 567.0625 220.328125 C 577.78125 218.515625 588.515625 223.234375 597.785156 228.917969 C 607.054688 234.601562 615.839844 241.453125 626.226562 244.667969 C 632.730469 246.683594 640.199219 246.875 646.5 244.617188 L 646.5 262 L 253.746094 262 L 253.746094 234.234375 C 261.648438 238.171875 270.335938 240.523438 279.160156 240.910156 C 312.136719 242.351562 344.578125 218.351562 376.167969 227.933594 " fill-opacity="1" fill-rule="nonzero"/></g><g clip-path="url(#ad1e71ba22)"><path fill="#b6e5f6" d="M 293.257812 123.824219 C 311.992188 118.328125 329.699219 107.925781 349.21875 107.445312 C 381.070312 106.65625 409.917969 132.503906 441.535156 128.554688 C 459.550781 126.304688 475.335938 114.539062 493.367188 112.378906 C 511.863281 110.164062 529.804688 118.273438 547.851562 122.894531 C 580.484375 131.25 615.871094 127.675781 646.5 113.757812 L 646.5 178.265625 C 625.316406 183.40625 602.5 181.859375 582.292969 173.632812 C 562.488281 165.570312 544.125 151.175781 522.746094 151.449219 C 497.675781 151.765625 477.792969 171.980469 454.441406 181.113281 C 434.453125 188.9375 411.300781 188.273438 391.789062 179.320312 C 374.210938 171.257812 359.796875 156.96875 341.554688 150.539062 C 313.460938 140.640625 283.546875 151.234375 253.746094 157.339844 L 253.746094 128.015625 C 267.03125 128.9375 280.472656 127.570312 293.257812 123.824219 " fill-opacity="1" fill-rule="nonzero"/></g><g clip-path="url(#ec1a95d4f8)"><path fill="#8dd4f0" d="M 341.554688 150.539062 C 359.796875 156.96875 374.210938 171.257812 391.789062 179.320312 C 411.300781 188.273438 434.453125 188.9375 454.441406 181.113281 C 477.792969 171.980469 497.675781 151.765625 522.746094 151.449219 C 544.125 151.175781 562.488281 165.570312 582.292969 173.632812 C 602.5 181.859375 625.316406 183.40625 646.5 178.265625 L 646.5 196.832031 C 606.730469 191.714844 566.347656 175.058594 528.296875 186.96875 C 508.550781 193.152344 491.542969 206.605469 471.488281 211.691406 C 431.277344 221.894531 389.738281 196.53125 348.484375 200.878906 C 327.910156 203.046875 308.746094 212.507812 288.3125 215.730469 C 276.933594 217.523438 264.265625 216.613281 253.746094 212.222656 L 253.746094 157.339844 C 283.546875 151.234375 313.460938 140.640625 341.554688 150.539062 " fill-opacity="1" fill-rule="nonzero"/></g><g clip-path="url(#1f86a08ff7)"><path fill="#ffffff" d="M 646.746094 0 L 1039.503906 0 L 1039.503906 262 L 646.746094 262 Z M 646.746094 0 " fill-opacity="1" fill-rule="nonzero"/></g><g clip-path="url(#ec45e9f3b7)"><path fill="#e8f8fe" d="M 745.394531 122.894531 C 763.445312 118.273438 781.382812 110.164062 799.878906 112.378906 C 817.910156 114.539062 833.695312 126.304688 851.714844 128.554688 C 883.332031 132.503906 912.175781 106.65625 944.027344 107.445312 C 963.546875 107.925781 981.257812 118.328125 999.992188 123.824219 C 1012.777344 127.570312 1026.214844 128.9375 1039.503906 128.015625 L 1039.503906 58.3125 C 1022.648438 62.269531 1006.035156 68.996094 990.03125 75.609375 C 959.660156 88.152344 926.871094 100.777344 894.769531 93.765625 C 876.851562 89.851562 860.511719 79.992188 842.375 77.277344 C 797.191406 70.503906 756.332031 108.851562 710.652344 109.601562 C 686.382812 110 662.546875 98.425781 646.746094 80.101562 L 646.746094 113.757812 C 677.375 127.675781 712.765625 131.25 745.394531 122.894531 " fill-opacity="1" fill-rule="nonzero"/></g><g clip-path="url(#06aac93b36)"><path fill="#f1fafe" d="M 710.652344 109.601562 C 756.332031 108.851562 797.191406 70.503906 842.375 77.277344 C 860.511719 79.992188 876.851562 89.851562 894.769531 93.765625 C 926.871094 100.777344 959.660156 88.152344 990.03125 75.609375 C 1006.035156 68.996094 1022.648438 62.269531 1039.503906 58.3125 L 1039.503906 33.519531 C 1016.410156 41.984375 990.835938 43.78125 966.964844 37.769531 C 943.015625 31.738281 920.753906 18.472656 896.109375 16.957031 C 862.347656 14.886719 831.839844 34.925781 800.496094 47.644531 C 752.019531 67.320312 696.792969 69.417969 646.746094 54.378906 L 646.746094 80.101562 C 662.546875 98.425781 686.382812 110 710.652344 109.601562 " fill-opacity="1" fill-rule="nonzero"/></g><g clip-path="url(#145182769c)"><path fill="#ffffff" d="M 800.496094 47.644531 C 831.839844 34.925781 862.347656 14.886719 896.109375 16.957031 C 920.753906 18.472656 943.015625 31.738281 966.964844 37.769531 C 990.835938 43.78125 1016.410156 41.984375 1039.503906 33.519531 L 1039.503906 0 L 646.746094 0 L 646.746094 54.378906 C 696.792969 69.417969 752.019531 67.320312 800.496094 47.644531 " fill-opacity="1" fill-rule="nonzero"/></g><g clip-path="url(#3e9f01dd2a)"><path fill="#70bce1" d="M 1004.933594 215.730469 C 984.5 212.507812 965.335938 203.046875 944.765625 200.878906 C 903.511719 196.53125 861.96875 221.894531 821.757812 211.691406 C 801.703125 206.605469 784.695312 193.152344 764.953125 186.96875 C 726.898438 175.058594 686.515625 191.714844 646.746094 196.832031 L 646.746094 244.617188 C 653.046875 246.875 660.515625 246.683594 667.019531 244.667969 C 677.40625 241.453125 686.191406 234.601562 695.460938 228.917969 C 704.730469 223.234375 715.464844 218.515625 726.1875 220.328125 C 738.925781 222.480469 748.574219 233.269531 760.9375 237.03125 C 782.394531 243.554688 804.535156 227.546875 826.933594 228.671875 C 846.394531 229.648438 864.347656 243.515625 883.644531 240.808594 C 895.507812 239.144531 905.613281 231.414062 917.082031 227.933594 C 948.667969 218.351562 981.109375 242.351562 1014.085938 240.910156 C 1022.910156 240.523438 1031.597656 238.171875 1039.503906 234.234375 L 1039.503906 212.222656 C 1028.980469 216.613281 1016.316406 217.523438 1004.933594 215.730469 " fill-opacity="1" fill-rule="nonzero"/></g><g clip-path="url(#b4735e1df0)"><path fill="#54a3d4" d="M 917.082031 227.933594 C 905.613281 231.414062 895.507812 239.144531 883.644531 240.808594 C 864.347656 243.515625 846.394531 229.648438 826.933594 228.671875 C 804.535156 227.546875 782.394531 243.554688 760.9375 237.03125 C 748.574219 233.269531 738.925781 222.480469 726.1875 220.328125 C 715.464844 218.515625 704.730469 223.234375 695.460938 228.917969 C 686.191406 234.601562 677.40625 241.453125 667.019531 244.667969 C 660.515625 246.683594 653.046875 246.875 646.746094 244.617188 L 646.746094 262 L 1039.503906 262 L 1039.503906 234.234375 C 1031.597656 238.171875 1022.910156 240.523438 1014.085938 240.910156 C 981.109375 242.351562 948.667969 218.351562 917.082031 227.933594 " fill-opacity="1" fill-rule="nonzero"/></g><g clip-path="url(#92e4960ca4)"><path fill="#b6e5f6" d="M 999.992188 123.824219 C 981.257812 118.328125 963.546875 107.925781 944.027344 107.445312 C 912.175781 106.65625 883.332031 132.503906 851.714844 128.554688 C 833.695312 126.304688 817.910156 114.539062 799.878906 112.378906 C 781.382812 110.164062 763.445312 118.273438 745.394531 122.894531 C 712.765625 131.25 677.375 127.675781 646.746094 113.757812 L 646.746094 178.265625 C 667.933594 183.40625 690.746094 181.859375 710.953125 173.632812 C 730.757812 165.570312 749.121094 151.175781 770.5 151.449219 C 795.570312 151.765625 815.453125 171.980469 838.804688 181.113281 C 858.792969 188.9375 881.945312 188.273438 901.457031 179.320312 C 919.039062 171.257812 933.449219 156.96875 951.691406 150.539062 C 979.785156 140.640625 1009.699219 151.234375 1039.503906 157.339844 L 1039.503906 128.015625 C 1026.214844 128.9375 1012.777344 127.570312 999.992188 123.824219 " fill-opacity="1" fill-rule="nonzero"/></g><g clip-path="url(#30b3e4c27d)"><path fill="#8dd4f0" d="M 951.691406 150.539062 C 933.449219 156.96875 919.039062 171.257812 901.457031 179.320312 C 881.945312 188.273438 858.792969 188.9375 838.804688 181.113281 C 815.453125 171.980469 795.570312 151.765625 770.5 151.449219 C 749.121094 151.175781 730.757812 165.570312 710.953125 173.632812 C 690.746094 181.859375 667.933594 183.40625 646.746094 178.265625 L 646.746094 196.832031 C 686.515625 191.714844 726.898438 175.058594 764.953125 186.96875 C 784.695312 193.152344 801.703125 206.605469 821.757812 211.691406 C 861.96875 221.894531 903.511719 196.53125 944.765625 200.878906 C 965.335938 203.046875 984.5 212.507812 1004.933594 215.730469 C 1016.316406 217.523438 1028.980469 216.613281 1039.503906 212.222656 L 1039.503906 157.339844 C 1009.699219 151.234375 979.785156 140.640625 951.691406 150.539062 " fill-opacity="1" fill-rule="nonzero"/></g></svg>