<svg xmlns="http://www.w3.org/2000/svg" xmlns:xlink="http://www.w3.org/1999/xlink" width="1200" zoomAndPan="magnify" viewBox="0 0 900 262.499992" height="350" preserveAspectRatio="xMidYMid meet" version="1.0"><defs><clipPath id="f52344c043"><path d="M 250.226562 0 L 899 0 L 899 174 L 250.226562 174 Z M 250.226562 0 " clip-rule="nonzero"/></clipPath><clipPath id="db7d48f9d9"><path d="M 250.226562 44 L 899 44 L 899 228 L 250.226562 228 Z M 250.226562 44 " clip-rule="nonzero"/></clipPath><clipPath id="e2d912e649"><path d="M 250.226562 59 L 899 59 L 899 262 L 250.226562 262 Z M 250.226562 59 " clip-rule="nonzero"/></clipPath><clipPath id="d1260a0f33"><path d="M 250.226562 86 L 899 86 L 899 262 L 250.226562 262 Z M 250.226562 86 " clip-rule="nonzero"/></clipPath><clipPath id="4ac880be4a"><path d="M 250.226562 129 L 899 129 L 899 262 L 250.226562 262 Z M 250.226562 129 " clip-rule="nonzero"/></clipPath><clipPath id="219488adb3"><path d="M 250.226562 159 L 899 159 L 899 262 L 250.226562 262 Z M 250.226562 159 " clip-rule="nonzero"/></clipPath><clipPath id="3b9c5f9159"><path d="M 250.226562 189 L 899 189 L 899 262 L 250.226562 262 Z M 250.226562 189 " clip-rule="nonzero"/></clipPath><clipPath id="94567b0abd"><path d="M 0.855469 0 L 250.964844 0 L 250.964844 174 L 0.855469 174 Z M 0.855469 0 " clip-rule="nonzero"/></clipPath><clipPath id="05e9a35c75"><path d="M 0.855469 44 L 250.964844 44 L 250.964844 228 L 0.855469 228 Z M 0.855469 44 " clip-rule="nonzero"/></clipPath><clipPath id="18055bd1b1"><path d="M 0.855469 59 L 250.964844 59 L 250.964844 262 L 0.855469 262 Z M 0.855469 59 " clip-rule="nonzero"/></clipPath><clipPath id="3167409902"><path d="M 0.855469 86 L 250.964844 86 L 250.964844 262 L 0.855469 262 Z M 0.855469 86 " clip-rule="nonzero"/></clipPath><clipPath id="3b2a818d18"><path d="M 0.855469 129 L 250.964844 129 L 250.964844 262 L 0.855469 262 Z M 0.855469 129 " clip-rule="nonzero"/></clipPath><clipPath id="416c70adfb"><path d="M 0.855469 159 L 250.964844 159 L 250.964844 262 L 0.855469 262 Z M 0.855469 159 " clip-rule="nonzero"/></clipPath><clipPath id="3550aa6a59"><path d="M 0.855469 189 L 250.964844 189 L 250.964844 262 L 0.855469 262 Z M 0.855469 189 " clip-rule="nonzero"/></clipPath></defs><g clip-path="url(#f52344c043)"><path fill="#95d8e8" d="M 735.277344 33.265625 C 787.984375 21.117188 842.183594 4.300781 898.816406 0.378906 L 898.816406 173.605469 L 250.652344 173.605469 L 250.652344 34.574219 C 271.957031 29.339844 293.265625 23.546875 314.382812 19.0625 C 373.441406 6.167969 448.390625 4.675781 507.074219 19.0625 C 585.386719 38.5 652.855469 52.515625 735.277344 33.265625 Z M 735.277344 33.265625 " fill-opacity="1" fill-rule="nonzero"/></g><g clip-path="url(#db7d48f9d9)"><path fill="#79d2e8" d="M 881.058594 68.207031 C 887.039062 70.453125 892.832031 72.691406 898.816406 74.9375 L 898.816406 227.980469 L 250.652344 227.980469 L 250.652344 54.378906 C 282.238281 54.753906 313.449219 58.117188 341.109375 65.21875 C 350.828125 67.648438 360.359375 70.078125 369.703125 72.320312 C 428.390625 86.332031 482.777344 95.117188 543.894531 86.148438 C 554.171875 84.65625 564.828125 82.785156 575.667969 80.171875 C 640.148438 64.660156 707.429688 42.421875 778.265625 44.476562 C 817.886719 45.597656 849.660156 56.625 881.058594 68.207031 Z M 881.058594 68.207031 " fill-opacity="1" fill-rule="nonzero"/></g><g clip-path="url(#e2d912e649)"><path fill="#63c3db" d="M 881.058594 68.207031 C 886.851562 66.335938 892.648438 64.660156 898.816406 63.347656 L 898.816406 262.550781 L 250.652344 262.550781 L 250.652344 104.832031 C 274.574219 101.84375 302.421875 94.933594 326.15625 87.832031 C 344.285156 82.222656 360.171875 76.621094 369.703125 72.320312 C 370.265625 71.949219 370.828125 71.757812 371.574219 71.382812 C 428.015625 45.035156 488.199219 66.710938 543.894531 86.148438 C 555.480469 90.261719 567.070312 94.367188 578.46875 97.734375 C 636.78125 115.671875 700.328125 128.753906 762.566406 115.113281 C 806.671875 105.394531 840.316406 81.476562 881.058594 68.207031 Z M 881.058594 68.207031 " fill-opacity="1" fill-rule="nonzero"/></g><g clip-path="url(#d1260a0f33)"><path fill="#20a1c1" d="M 675.097656 141.085938 C 746.492188 124.457031 820.691406 100.535156 898.816406 100.910156 L 898.816406 262.550781 L 250.652344 262.550781 L 250.652344 89.328125 C 275.507812 86.519531 300.738281 86.148438 326.15625 87.832031 C 362.226562 90.261719 398.300781 96.613281 432.875 105.207031 C 525.390625 128.191406 577.347656 163.699219 675.097656 141.085938 Z M 675.097656 141.085938 " fill-opacity="1" fill-rule="nonzero"/></g><g clip-path="url(#4ac880be4a)"><path fill="#01729d" d="M 801.066406 129.6875 C 838.632812 130.8125 868.910156 141.460938 898.816406 153.234375 L 898.816406 262.550781 L 250.652344 262.550781 L 250.652344 140.714844 C 293.265625 137.722656 337.746094 140.714844 375.5 150.800781 C 412.503906 160.894531 447.269531 169.488281 482.21875 173.605469 C 509.320312 176.78125 536.605469 177.339844 565.199219 173.605469 C 577.722656 172.109375 590.617188 169.679688 603.703125 166.3125 C 666.5 150.429688 731.914062 127.445312 801.066406 129.6875 Z M 801.066406 129.6875 " fill-opacity="1" fill-rule="nonzero"/></g><g clip-path="url(#219488adb3)"><path fill="#02577f" d="M 848.539062 173.605469 C 864.238281 167.808594 880.6875 163.140625 898.816406 160.894531 L 898.816406 262.550781 L 250.652344 262.550781 L 250.652344 193.222656 C 276.070312 186.683594 299.242188 179.207031 312.886719 173.605469 C 314.570312 173.042969 316.066406 172.296875 317.375 171.734375 C 364.285156 150.996094 413.625 159.589844 461.097656 173.605469 C 487.824219 181.636719 514.175781 191.355469 539.035156 198.640625 C 587.441406 212.46875 638.839844 223.683594 690.421875 221.625 C 705.75 221.070312 721.074219 219.386719 736.398438 216.207031 C 762.003906 210.792969 784.246094 201.261719 806.300781 191.542969 C 820.316406 185.375 834.148438 179.023438 848.539062 173.605469 Z M 848.539062 173.605469 " fill-opacity="1" fill-rule="nonzero"/></g><g clip-path="url(#3b9c5f9159)"><path fill="#1d3f5a" d="M 845.734375 189.671875 C 865.171875 190.234375 882.367188 194.53125 898.816406 199.953125 L 898.816406 262.550781 L 250.652344 262.550781 L 250.652344 221.445312 C 260.183594 218.449219 269.714844 215.460938 279.058594 212.65625 C 333.257812 197.519531 401.851562 195.652344 455.679688 212.84375 C 473.246094 218.449219 490.066406 223.683594 506.890625 227.980469 C 558.472656 241.621094 607.8125 246.855469 665.003906 229.664062 C 666.6875 229.105469 668.554688 228.542969 670.238281 227.980469 C 676.964844 225.925781 683.695312 223.871094 690.421875 221.625 C 727.988281 209.480469 766.488281 196.402344 806.300781 191.542969 C 819.382812 189.859375 832.464844 189.113281 845.734375 189.671875 Z M 845.734375 189.671875 " fill-opacity="1" fill-rule="nonzero"/></g><g clip-path="url(#94567b0abd)"><path fill="#95d8e8" d="M -234.089844 33.265625 C -286.792969 21.117188 -340.996094 4.300781 -397.625 0.378906 L -397.625 173.605469 L 250.539062 173.605469 L 250.539062 34.574219 C 229.234375 29.339844 207.925781 23.546875 186.808594 19.0625 C 127.746094 6.167969 52.800781 4.675781 -5.886719 19.0625 C -84.195312 38.5 -151.667969 52.515625 -234.089844 33.265625 Z M -234.089844 33.265625 " fill-opacity="1" fill-rule="nonzero"/></g><g clip-path="url(#05e9a35c75)"><path fill="#79d2e8" d="M -379.871094 68.207031 C -385.851562 70.453125 -391.644531 72.691406 -397.625 74.9375 L -397.625 227.980469 L 250.539062 227.980469 L 250.539062 54.378906 C 218.953125 54.753906 187.742188 58.117188 160.078125 65.21875 C 150.363281 67.648438 140.828125 70.078125 131.484375 72.320312 C 72.796875 86.332031 18.410156 95.117188 -42.703125 86.148438 C -52.984375 84.65625 -63.636719 82.785156 -74.476562 80.171875 C -138.957031 64.660156 -206.242188 42.421875 -277.074219 44.476562 C -316.699219 45.597656 -348.46875 56.625 -379.871094 68.207031 Z M -379.871094 68.207031 " fill-opacity="1" fill-rule="nonzero"/></g><g clip-path="url(#18055bd1b1)"><path fill="#63c3db" d="M -379.871094 68.207031 C -385.664062 66.335938 -391.457031 64.660156 -397.625 63.347656 L -397.625 262.550781 L 250.539062 262.550781 L 250.539062 104.832031 C 226.617188 101.84375 198.769531 94.933594 175.03125 87.832031 C 156.902344 82.222656 141.015625 76.621094 131.484375 72.320312 C 130.921875 71.949219 130.363281 71.757812 129.617188 71.382812 C 73.171875 45.035156 12.992188 66.710938 -42.703125 86.148438 C -54.292969 90.261719 -65.878906 94.367188 -77.28125 97.734375 C -135.59375 115.671875 -199.140625 128.753906 -261.375 115.113281 C -305.484375 105.394531 -339.125 81.476562 -379.871094 68.207031 Z M -379.871094 68.207031 " fill-opacity="1" fill-rule="nonzero"/></g><g clip-path="url(#3167409902)"><path fill="#20a1c1" d="M -173.90625 141.085938 C -245.304688 124.457031 -319.5 100.535156 -397.625 100.910156 L -397.625 262.550781 L 250.539062 262.550781 L 250.539062 89.328125 C 225.679688 86.519531 200.449219 86.148438 175.03125 87.832031 C 138.960938 90.261719 102.890625 96.613281 68.3125 105.207031 C -24.203125 128.191406 -76.160156 163.699219 -173.90625 141.085938 Z M -173.90625 141.085938 " fill-opacity="1" fill-rule="nonzero"/></g><g clip-path="url(#3b2a818d18)"><path fill="#01729d" d="M -299.878906 129.6875 C -337.445312 130.8125 -367.722656 141.460938 -397.625 153.234375 L -397.625 262.550781 L 250.539062 262.550781 L 250.539062 140.714844 C 207.925781 137.722656 163.445312 140.714844 125.691406 150.800781 C 88.683594 160.894531 53.921875 169.488281 18.972656 173.605469 C -8.128906 176.78125 -35.414062 177.339844 -64.011719 173.605469 C -76.535156 172.109375 -89.429688 169.679688 -102.511719 166.3125 C -165.308594 150.429688 -230.722656 127.445312 -299.878906 129.6875 Z M -299.878906 129.6875 " fill-opacity="1" fill-rule="nonzero"/></g><g clip-path="url(#416c70adfb)"><path fill="#02577f" d="M -347.347656 173.605469 C -363.050781 167.808594 -379.496094 163.140625 -397.625 160.894531 L -397.625 262.550781 L 250.539062 262.550781 L 250.539062 193.222656 C 225.121094 186.683594 201.945312 179.207031 188.300781 173.605469 C 186.621094 173.042969 185.125 172.296875 183.816406 171.734375 C 136.90625 150.996094 87.5625 159.589844 40.089844 173.605469 C 13.363281 181.636719 -12.988281 191.355469 -37.84375 198.640625 C -86.253906 212.46875 -137.648438 223.683594 -189.234375 221.625 C -204.558594 221.070312 -219.882812 219.386719 -235.210938 216.207031 C -260.816406 210.792969 -283.054688 201.261719 -305.109375 191.542969 C -319.128906 185.375 -332.957031 179.023438 -347.347656 173.605469 Z M -347.347656 173.605469 " fill-opacity="1" fill-rule="nonzero"/></g><g clip-path="url(#3550aa6a59)"><path fill="#1d3f5a" d="M -344.546875 189.671875 C -363.984375 190.234375 -381.175781 194.53125 -397.625 199.953125 L -397.625 262.550781 L 250.539062 262.550781 L 250.539062 221.445312 C 241.007812 218.449219 231.476562 215.460938 222.128906 212.65625 C 167.929688 197.519531 99.335938 195.652344 45.511719 212.84375 C 27.945312 218.449219 11.121094 223.683594 -5.699219 227.980469 C -57.28125 241.621094 -106.625 246.855469 -163.816406 229.664062 C -165.496094 229.105469 -167.367188 228.542969 -169.046875 227.980469 C -175.777344 225.925781 -182.503906 223.871094 -189.234375 221.625 C -226.800781 209.480469 -265.300781 196.402344 -305.109375 191.542969 C -318.191406 189.859375 -331.277344 189.113281 -344.546875 189.671875 Z M -344.546875 189.671875 " fill-opacity="1" fill-rule="nonzero"/></g></svg>